<svg width="82" height="82" viewBox="0 0 82 82" fill="none" xmlns="http://www.w3.org/2000/svg">
<g clip-path="url(#clip0_75_217)">
<path d="M60.634 6.99296L80.2679 41L60.634 75.007L21.366 75.007L1.73205 41L21.366 6.99296L60.634 6.99296Z" stroke="#0074FF" stroke-width="3"/>
<path d="M41 58.9826C43.4537 60.6295 46.6037 61.7569 50.1405 62L49.1458 59.7232C54.8158 57.2474 59.1263 52.329 60.7511 46.1726L56.0316 44.9458C54.7716 49.6874 51.4779 53.39 47.1895 55.2579L46.1947 52.9811C45.2332 55.1916 43.4647 57.3469 41 58.9826Z" fill="#0074FF"/>
<path d="M23.0174 41C21.3705 43.4537 20.2432 46.6037 20 50.1405L22.2768 49.1458C24.7637 54.8158 29.6711 59.1263 35.8274 60.7511L37.0542 56.0316C32.3237 54.7716 28.6211 51.4889 26.7421 47.1895L29.0189 46.1947C26.8084 45.2332 24.6532 43.4647 23.0174 41Z" fill="#0074FF"/>
<path d="M41 23.0174C38.5463 21.3705 35.3963 20.2432 31.8595 20L32.8542 22.2768C27.1842 24.7526 22.8737 29.6711 21.2379 35.8274L25.9574 37.0542C27.2174 32.3237 30.5 28.6211 34.7995 26.7421L35.7942 29.0189C36.7669 26.8084 38.5353 24.6532 41 23.0174Z" fill="#0074FF"/>
<path d="M58.9826 41C60.6295 38.5463 61.7568 35.3963 62 31.8595L59.7232 32.8542C57.2474 27.1842 52.329 22.8737 46.1726 21.2379L44.9458 25.9574C49.6874 27.2174 53.39 30.5111 55.2579 34.7995L52.9811 35.7942C55.1916 36.7669 57.3469 38.5353 58.9826 41Z" fill="#0074FF"/>
</g>
<defs>
<clipPath id="clip0_75_217">
<rect width="82" height="82" fill="white"/>
</clipPath>
</defs>
</svg>
