<svg width="82" height="82" viewBox="0 0 82 82" fill="none" xmlns="http://www.w3.org/2000/svg">
<g clip-path="url(#clip0_75_221)">
<path d="M60.634 6.99296L80.2679 41L60.634 75.007L21.366 75.007L1.73205 41L21.366 6.99296L60.634 6.99296Z" stroke="#0074FF" stroke-width="3"/>
<path fill-rule="evenodd" clip-rule="evenodd" d="M47 25H23V32H21V25V23H23H47H49V25V27H58.5L66 34V49V51H64H59.6458C60.4762 51.7329 61 52.8053 61 54C61 56.2091 59.2091 58 57 58C54.7909 58 53 56.2091 53 54C53 52.8053 53.5238 51.7329 54.3542 51H49H47H33.6458C34.4762 51.7329 35 52.8053 35 54C35 56.2091 33.2091 58 31 58C28.7909 58 27 56.2091 27 54C27 52.8053 27.5238 51.7329 28.3542 51H23H21V49V46H23V49H47V29V27V25ZM49 29V49H64V34.8691L57.7117 29H49ZM18.5 33H33V35H18.5V33ZM16.5 38H30.5V40H16.5V38ZM15 42.5H28V44.5H15V42.5ZM33 54C33 55.1046 32.1046 56 31 56C29.8954 56 29 55.1046 29 54C29 52.8954 29.8954 52 31 52C32.1046 52 33 52.8954 33 54ZM59 54C59 55.1046 58.1046 56 57 56C55.8954 56 55 55.1046 55 54C55 52.8954 55.8954 52 57 52C58.1046 52 59 52.8954 59 54ZM57.0901 33H52V40H59.5V34.9736L57.0901 33ZM57.4474 32H52H51V33V40V41H52H59.5H60.5V40V34.5L57.4474 32Z" fill="#0074FF"/>
</g>
<defs>
<clipPath id="clip0_75_221">
<rect width="82" height="82" fill="white"/>
</clipPath>
</defs>
</svg>
