<svg width="82" height="82" viewBox="0 0 82 82" fill="none" xmlns="http://www.w3.org/2000/svg">
<g clip-path="url(#clip0_75_229)">
<path d="M60.634 6.99296L80.2679 41L60.634 75.007L21.366 75.007L1.73205 41L21.366 6.99296L60.634 6.99296Z" stroke="#0074FF" stroke-width="3"/>
<circle cx="41" cy="41" r="20" stroke="#0074FF" stroke-width="2"/>
<path d="M42.8145 48.041H36.3457V54H34.2012V48.041H30.6152V46.1953H34.2012V43.5762H30.6152V41.748H34.2012V28.4062H42.9199C45.6152 28.4062 47.7188 29.0918 49.2305 30.4629C50.7539 31.8223 51.5156 33.6738 51.5156 36.0176C51.5156 38.4082 50.7773 40.2656 49.3008 41.5898C47.8242 42.9023 45.7148 43.5645 42.9727 43.5762H36.3457V46.1953H42.8145V48.041ZM36.3457 41.748H42.9199C44.959 41.748 46.541 41.2559 47.666 40.2715C48.791 39.2754 49.3535 37.8691 49.3535 36.0527C49.3535 34.2949 48.8027 32.9004 47.7012 31.8691C46.6113 30.8379 45.1055 30.2988 43.1836 30.252H36.3457V41.748Z" fill="#0074FF"/>
</g>
<defs>
<clipPath id="clip0_75_229">
<rect width="82" height="82" fill="white"/>
</clipPath>
</defs>
</svg>
