<svg width="114" height="28" viewBox="0 0 114 28" fill="none" xmlns="http://www.w3.org/2000/svg">
<path d="M7.34375 9.875H3.58594L2.92969 12H0L4.17188 0.625H6.75L10.9531 12H8.00781L7.34375 9.875ZM4.24219 7.75781H6.6875L5.46094 3.8125L4.24219 7.75781Z" fill="black"/>
<path d="M21.5 0.625V12H18.7578V2.74219H16.2031L16.0156 6.5625C15.9375 7.88021 15.7552 8.93229 15.4688 9.71875C15.1823 10.5052 14.7734 11.0807 14.2422 11.4453C13.7161 11.8047 12.9974 11.9896 12.0859 12H11.3516V9.89062L11.7344 9.85156C12.2812 9.77344 12.6771 9.4401 12.9219 8.85156C13.1667 8.25781 13.3255 7.26042 13.3984 5.85938L13.5938 0.625H21.5Z" fill="black"/>
<path d="M30.2656 7.17969H25.9531V9.89062H31.0469V12H23.2109V0.625H31.0625V2.74219H25.9531V5.14062H30.2656V7.17969Z" fill="black"/>
<path d="M36.1875 7.5H34.8906V12H32.1484V0.625H34.8906V5.02344H35.9453L38.1328 0.625H41.4531L38.3281 5.875L41.8438 12H38.6016L36.1875 7.5Z" fill="black"/>
<path d="M51.4766 8.14844C51.4401 8.9401 51.2266 9.64062 50.8359 10.25C50.4453 10.8542 49.8958 11.3229 49.1875 11.6562C48.4844 11.9896 47.6797 12.1562 46.7734 12.1562C45.2786 12.1562 44.1016 11.6693 43.2422 10.6953C42.3828 9.72135 41.9531 8.34635 41.9531 6.57031V6.00781C41.9531 4.89323 42.1458 3.91927 42.5312 3.08594C42.9219 2.2474 43.4818 1.60156 44.2109 1.14844C44.9401 0.690104 45.7839 0.460938 46.7422 0.460938C48.1224 0.460938 49.2318 0.825521 50.0703 1.55469C50.9089 2.27865 51.3854 3.27865 51.5 4.55469H48.7656C48.7448 3.86198 48.5703 3.36458 48.2422 3.0625C47.9141 2.76042 47.4141 2.60938 46.7422 2.60938C46.0599 2.60938 45.5599 2.86458 45.2422 3.375C44.9245 3.88542 44.7578 4.70052 44.7422 5.82031V6.625C44.7422 7.83854 44.8932 8.70573 45.1953 9.22656C45.5026 9.7474 46.0286 10.0078 46.7734 10.0078C47.4036 10.0078 47.8854 9.85938 48.2188 9.5625C48.5521 9.26562 48.7292 8.79427 48.75 8.14844H51.4766Z" fill="black"/>
<path d="M7.55469 16.625H10.2969V28H7.55469V20.8281L3.46875 28H0.726562V16.625H3.46875V23.8047L7.55469 16.625Z" fill="black"/>
<path d="M21.4844 28H18.7578V23.25H14.7188V28H11.9766V16.625H14.7188V21.1406H18.7578V16.625H21.4844V28Z" fill="black"/>
<path d="M33.7188 23.5547H32.3281V28H29.6016V23.5547H28.1875L26 28H22.5938L26.0234 21.7891L22.6953 16.625H26.1562L28.4844 21.0859H29.6016V16.625H32.3281V21.0859H33.4375L35.6641 16.625H39.1172L35.875 21.7734L39.2344 28H35.8125L33.7188 23.5547Z" fill="black"/>
<path d="M46.7266 16.625H49.4688V28H46.7266V20.8281L42.6406 28H39.8984V16.625H42.6406V23.8047L46.7266 16.625Z" fill="black"/>
<path d="M60.6562 28H57.9297V23.25H53.8906V28H51.1484V16.625H53.8906V21.1406H57.9297V16.625H60.6562V28Z" fill="black"/>
<path d="M69.0703 16.625H71.8125V28H69.0703V20.8281L64.9844 28H62.2422V16.625H64.9844V23.8047L69.0703 16.625Z" fill="black"/>
<path d="M76.2344 24.1406V28H73.4922V16.625H78.0312C78.901 16.625 79.6693 16.7865 80.3359 17.1094C81.0078 17.4271 81.526 17.8828 81.8906 18.4766C82.2604 19.0651 82.4453 19.7344 82.4453 20.4844C82.4453 21.5938 82.0469 22.4818 81.25 23.1484C80.4583 23.8099 79.3698 24.1406 77.9844 24.1406H76.2344ZM76.2344 22.0234H78.0312C78.5625 22.0234 78.9661 21.8906 79.2422 21.625C79.5234 21.3594 79.6641 20.9844 79.6641 20.5C79.6641 19.9688 79.5208 19.5443 79.2344 19.2266C78.9479 18.9089 78.5573 18.7474 78.0625 18.7422H76.2344V22.0234Z" fill="black"/>
<path d="M90.5859 16.625H93.3281V28H90.5859V20.8281L86.5 28H83.7578V16.625H86.5V23.8047L90.5859 16.625Z" fill="black"/>
<path d="M104.516 28H101.789V23.25H97.75V28H95.0078V16.625H97.75V21.1406H101.789V16.625H104.516V28Z" fill="black"/>
<path d="M113.93 18.7422H108.984V28H106.242V16.625H113.93V18.7422Z" fill="black"/>
</svg>
