<svg width="82" height="82" viewBox="0 0 82 82" fill="none" xmlns="http://www.w3.org/2000/svg">
<g clip-path="url(#clip0_75_225)">
<path d="M60.634 6.99296L80.2679 41L60.634 75.007L21.366 75.007L1.73205 41L21.366 6.99296L60.634 6.99296Z" stroke="#0074FF" stroke-width="3"/>
<path fill-rule="evenodd" clip-rule="evenodd" d="M41 51C50.3889 51 58 43.3888 58 34C58 24.6112 50.3889 17 41 17C31.6112 17 24 24.6112 24 34C24 43.3888 31.6112 51 41 51ZM41 53C42.1121 53 43.2019 52.9045 44.2616 52.7211L51.134 64.6244L52.3411 66.7151L52.9659 64.3832L54.5372 58.519L60.4014 60.0903L62.7334 60.7151L61.5263 58.6244L54.8308 47.0274C58.0358 43.626 60 39.0424 60 34C60 23.5066 51.4934 15 41 15C30.5066 15 22 23.5066 22 34C22 38.9316 23.8789 43.4244 26.9599 46.8015L20.134 58.6244L18.9269 60.7151L21.2588 60.0903L27.123 58.519L28.6943 64.3832L29.3192 66.7151L30.5263 64.6244L37.4309 52.6653C38.5869 52.885 39.78 53 41 53ZM35.4106 52.1645C32.8005 51.3623 30.4299 50.013 28.4328 48.2504L23.0731 57.5336L27.5713 56.3283L28.5372 56.0695L28.7961 57.0354L30.0013 61.5336L35.4106 52.1645ZM51.6589 61.5336L46.2997 52.2511C48.9256 51.4899 51.3172 50.1773 53.341 48.447L58.5871 57.5336L54.089 56.3283L53.123 56.0695L52.8642 57.0354L51.6589 61.5336ZM41 46C47.6274 46 53 40.6274 53 34C53 27.3726 47.6274 22 41 22C34.3726 22 29 27.3726 29 34C29 40.6274 34.3726 46 41 46ZM41 48C48.732 48 55 41.732 55 34C55 26.268 48.732 20 41 20C33.268 20 27 26.268 27 34C27 41.732 33.268 48 41 48ZM40.7773 40.1292L49.2773 29.6292L47.7228 28.3708L39.956 37.965L35.74 33.3273L34.2601 34.6727L39.2601 40.1727L40.044 41.035L40.7773 40.1292Z" fill="#0074FF"/>
</g>
<defs>
<clipPath id="clip0_75_225">
<rect width="82" height="82" fill="white"/>
</clipPath>
</defs>
</svg>
